<svg width="22" height="22" viewBox="0 0 22 22" fill="none" xmlns="http://www.w3.org/2000/svg">
<path d="M11 1.83333C5.94551 1.83333 1.83334 5.9455 1.83334 11C1.83334 16.0545 5.94551 20.1667 11 20.1667C16.0545 20.1667 20.1667 16.0545 20.1667 11C20.1667 5.9455 16.0545 1.83333 11 1.83333ZM11 18.3333C6.95659 18.3333 3.66668 15.0434 3.66668 11C3.66668 6.95658 6.95659 3.66666 11 3.66666C15.0434 3.66666 18.3333 6.95658 18.3333 11C18.3333 15.0434 15.0434 18.3333 11 18.3333Z" fill="#6B9080"/>
<path d="M11.9167 6.41667H10.0833V11.9167H15.5833V10.0833H11.9167V6.41667Z" fill="#6B9080"/>
</svg>
