<svg width="22" height="22" viewBox="0 0 22 22" fill="none" xmlns="http://www.w3.org/2000/svg">
<path d="M18.3333 3.66667H3.66668C2.65834 3.66667 1.83334 4.49167 1.83334 5.50001V8.25H3.66668V5.50001H18.3333V8.25H20.1667V5.50001C20.1667 4.49167 19.3417 3.66667 18.3333 3.66667ZM18.3333 16.5H3.66668V13.75H1.83334V16.5C1.83334 17.5083 2.65834 18.3333 3.66668 18.3333H18.3333C19.3417 18.3333 20.1667 17.5083 20.1667 16.5V13.75H18.3333V16.5Z" fill="#6B9080"/>
<path d="M13.6492 6.92084C13.3375 6.29751 12.32 6.29751 12.0083 6.92084L9.16668 12.6133L8.14918 10.5875C8.07401 10.4355 7.9577 10.3077 7.81347 10.2186C7.66924 10.1294 7.50289 10.0826 7.33334 10.0833H1.83334V11.9167H6.76501L8.34168 15.0792C8.50668 15.3908 8.81834 15.5833 9.16668 15.5833C9.51501 15.5833 9.82668 15.3908 9.98251 15.0792L12.8333 9.38667L13.8508 11.4125C14.0067 11.7242 14.3183 11.9167 14.6667 11.9167H20.1667V10.0833H15.235L13.6492 6.92084Z" fill="#6B9080"/>
</svg>
