<svg width="26" height="26" viewBox="0 0 26 26" fill="none" xmlns="http://www.w3.org/2000/svg">
<path d="M13 2.16666C7.0265 2.16666 2.16667 7.02649 2.16667 13C2.16667 18.9735 7.0265 23.8333 13 23.8333C18.9735 23.8333 23.8333 18.9735 23.8333 13C23.8333 7.02649 18.9735 2.16666 13 2.16666ZM13 21.6667C8.22142 21.6667 4.33334 17.7786 4.33334 13C4.33334 8.22141 8.22142 4.33332 13 4.33332C17.7786 4.33332 21.6667 8.22141 21.6667 13C21.6667 17.7786 17.7786 21.6667 13 21.6667Z" fill="#6B9080"/>
<path d="M11.9167 11.9167H14.0833V18.4167H11.9167V11.9167ZM11.9167 7.58334H14.0833V9.75001H11.9167V7.58334Z" fill="#6B9080"/>
</svg>
