<svg width="217" height="29" viewBox="0 0 217 29" fill="none" xmlns="http://www.w3.org/2000/svg">
<path d="M0.88 1.6H17.26V6.02H5.84V12.62H17.1V16.9H5.84V23.58H17.26V28H0.88V1.6ZM29.6888 1.6H34.7088L44.8688 28H39.5488L37.4888 22.3H26.9288L24.8288 28H19.4888L29.6888 1.6ZM28.5688 17.88H35.8488L32.2288 7.64H32.1688L28.5688 17.88ZM56.3663 1.12C57.9529 1.12 59.3329 1.3 60.5063 1.66C61.6929 2.00667 62.6329 2.38 63.3263 2.78C64.0329 3.18 64.4596 3.44 64.6063 3.56L62.1663 7.62C61.9529 7.44667 61.5863 7.20667 61.0663 6.9C60.5596 6.58 59.9463 6.3 59.2263 6.06C58.5063 5.80667 57.7263 5.68 56.8863 5.68C55.6729 5.68 54.6996 5.91333 53.9663 6.38C53.2463 6.83333 52.8863 7.49333 52.8863 8.36C52.8863 8.94667 53.0796 9.47333 53.4663 9.94C53.8529 10.3933 54.4196 10.82 55.1663 11.22C55.9263 11.62 56.8529 12.04 57.9463 12.48C58.9063 12.8533 59.8196 13.2867 60.6863 13.78C61.5663 14.2733 62.3463 14.8533 63.0263 15.52C63.7196 16.1867 64.2663 16.96 64.6663 17.84C65.0796 18.72 65.2863 19.7267 65.2863 20.86C65.2863 22.1267 65.0263 23.2333 64.5063 24.18C63.9996 25.1267 63.2929 25.92 62.3863 26.56C61.4929 27.2 60.4663 27.68 59.3063 28C58.1463 28.32 56.9263 28.48 55.6463 28.48C53.9129 28.48 52.3529 28.28 50.9663 27.88C49.5929 27.4667 48.4796 27.0267 47.6263 26.56C46.7729 26.0933 46.2729 25.7933 46.1263 25.66L48.6863 21.44C48.8463 21.56 49.1463 21.7533 49.5863 22.02C50.0396 22.2867 50.5863 22.56 51.2263 22.84C51.8796 23.12 52.5863 23.36 53.3463 23.56C54.1196 23.76 54.9063 23.86 55.7063 23.86C57.1463 23.86 58.2329 23.56 58.9663 22.96C59.6996 22.36 60.0663 21.58 60.0663 20.62C60.0663 19.9 59.8329 19.2667 59.3663 18.72C58.8996 18.1733 58.2396 17.6733 57.3863 17.22C56.5463 16.7533 55.5396 16.28 54.3663 15.8C53.1929 15.3067 52.0996 14.7333 51.0863 14.08C50.0863 13.4133 49.2796 12.6 48.6663 11.64C48.0529 10.6667 47.7463 9.47333 47.7463 8.06C47.7463 6.66 48.1396 5.44 48.9263 4.4C49.7263 3.36 50.7796 2.55333 52.0863 1.98C53.4063 1.40666 54.8329 1.12 56.3663 1.12ZM75.9003 18.5L66.8803 1.6H72.9403L78.3803 12.76L83.8403 1.6H89.8603L80.9003 18.5V28H75.9003V18.5Z" fill="#97B1A6"/>
<path d="M92.88 1.6H100.16C102.973 1.6 105.293 2.16667 107.12 3.3C108.96 4.42 110.333 5.97333 111.24 7.96C112.147 9.94667 112.6 12.22 112.6 14.78C112.6 17.3533 112.147 19.6333 111.24 21.62C110.333 23.6067 108.96 25.1667 107.12 26.3C105.293 27.4333 102.973 28 100.16 28H92.88V1.6ZM97.84 6.06V23.54H99.72C101.44 23.54 102.853 23.1667 103.96 22.42C105.08 21.66 105.913 20.62 106.46 19.3C107.02 17.98 107.3 16.4867 107.3 14.82C107.313 13.14 107.047 11.64 106.5 10.32C105.953 9 105.113 7.96 103.98 7.2C102.86 6.44 101.44 6.06 99.72 6.06H97.84ZM116.675 1.6H121.675V28H116.675V1.6ZM135.788 1.12C137.375 1.12 138.755 1.3 139.928 1.66C141.115 2.00667 142.055 2.38 142.748 2.78C143.455 3.18 143.881 3.44 144.028 3.56L141.588 7.62C141.375 7.44667 141.008 7.20667 140.488 6.9C139.981 6.58 139.368 6.3 138.648 6.06C137.928 5.80667 137.148 5.68 136.308 5.68C135.095 5.68 134.121 5.91333 133.388 6.38C132.668 6.83333 132.308 7.49333 132.308 8.36C132.308 8.94667 132.501 9.47333 132.888 9.94C133.275 10.3933 133.841 10.82 134.588 11.22C135.348 11.62 136.275 12.04 137.368 12.48C138.328 12.8533 139.241 13.2867 140.108 13.78C140.988 14.2733 141.768 14.8533 142.448 15.52C143.141 16.1867 143.688 16.96 144.088 17.84C144.501 18.72 144.708 19.7267 144.708 20.86C144.708 22.1267 144.448 23.2333 143.928 24.18C143.421 25.1267 142.715 25.92 141.808 26.56C140.915 27.2 139.888 27.68 138.728 28C137.568 28.32 136.348 28.48 135.068 28.48C133.335 28.48 131.775 28.28 130.388 27.88C129.015 27.4667 127.901 27.0267 127.048 26.56C126.195 26.0933 125.695 25.7933 125.548 25.66L128.108 21.44C128.268 21.56 128.568 21.7533 129.008 22.02C129.461 22.2867 130.008 22.56 130.648 22.84C131.301 23.12 132.008 23.36 132.768 23.56C133.541 23.76 134.328 23.86 135.128 23.86C136.568 23.86 137.655 23.56 138.388 22.96C139.121 22.36 139.488 21.58 139.488 20.62C139.488 19.9 139.255 19.2667 138.788 18.72C138.321 18.1733 137.661 17.6733 136.808 17.22C135.968 16.7533 134.961 16.28 133.788 15.8C132.615 15.3067 131.521 14.7333 130.508 14.08C129.508 13.4133 128.701 12.6 128.088 11.64C127.475 10.6667 127.168 9.47333 127.168 8.06C127.168 6.66 127.561 5.44 128.348 4.4C129.148 3.36 130.201 2.55333 131.508 1.98C132.828 1.40666 134.255 1.12 135.788 1.12ZM164.062 16.96H153.582V28H148.622V1.6H153.582V12.56H164.062V1.6H169.022V28H164.062V16.96Z" fill="#6B9080"/>
<path d="M215.3 19.25C215.3 11.1562 209.338 4.47825 201.7 3.60325V0H198.3V3.60325C190.662 4.47825 184.7 11.1562 184.7 19.25V22.75H215.3V19.25ZM183 24.5H217V28H183V24.5Z" fill="#6B9080"/>
</svg>
