<svg width="17" height="17" viewBox="0 0 19 19" fill="none" xmlns="http://www.w3.org/2000/svg">
<path d="M17.0135 10.9579C16.3923 11.1229 15.7523 11.2064 15.1096 11.2063C13.1525 11.2063 11.3146 10.4455 9.9341 9.06499C9.02756 8.15323 8.37582 7.01978 8.04386 5.77764C7.71189 4.53549 7.71128 3.22803 8.0421 1.98558C8.08341 1.83023 8.08315 1.66675 8.04134 1.51154C7.99952 1.35633 7.91763 1.21484 7.80388 1.10127C7.69012 0.987698 7.5485 0.906037 7.39322 0.864479C7.23794 0.82292 7.07446 0.822925 6.91918 0.864492C5.36374 1.27899 3.94465 2.09523 2.80426 3.23133C-0.768902 6.80449 -0.768902 12.6207 2.80426 16.1957C3.65358 17.0498 4.66385 17.7269 5.77659 18.1879C6.88934 18.649 8.08247 18.8847 9.28693 18.8816C10.4911 18.885 11.6839 18.6494 12.7964 18.1885C13.9088 17.7276 14.9188 17.0506 15.7678 16.1967C16.9047 15.056 17.7213 13.6362 18.1355 12.0799C18.1767 11.9246 18.1763 11.7613 18.1345 11.6062C18.0927 11.4511 18.011 11.3096 17.8974 11.1961C17.7838 11.0825 17.6424 11.0007 17.4873 10.9589C17.3322 10.9171 17.1688 10.9168 17.0135 10.9579ZM14.4725 14.9005C13.7932 15.5835 12.9852 16.125 12.0953 16.4937C11.2054 16.8623 10.2511 17.0508 9.28785 17.0482C8.32424 17.0506 7.36972 16.862 6.47948 16.4932C5.58924 16.1244 4.78095 15.5827 4.10135 14.8996C1.24318 12.0405 1.24318 7.38749 4.10135 4.52841C4.65364 3.97673 5.29127 3.5177 5.98968 3.16899C5.88745 4.48813 6.07122 5.81379 6.52843 7.05537C6.98564 8.29696 7.70551 9.4252 8.63885 10.363C9.57458 11.2993 10.7025 12.0211 11.9446 12.4787C13.1867 12.9362 14.5134 13.1186 15.8328 13.0131C15.4822 13.7103 15.0231 14.3474 14.4725 14.9005Z" fill="#F0F4F2"/>
</svg>
