<svg width="18" height="17" viewBox="0 0 20 19" fill="none" xmlns="http://www.w3.org/2000/svg">
<path d="M10.0004 1.56227C8.90786 0.557627 7.47776 4.6681e-05 5.99349 0C5.20789 0.000817936 4.4302 0.156988 3.70518 0.459523C2.98016 0.762059 2.32213 1.20499 1.76896 1.76281C-0.590488 4.13229 -0.589485 7.83841 1.77096 10.1979L9.12304 17.5499C9.29351 17.8498 9.62241 18.0433 10.0004 18.0433C10.1557 18.0418 10.3084 18.0039 10.4463 17.9327C10.5842 17.8614 10.7035 17.7589 10.7946 17.6332L18.2299 10.1979C20.5904 7.83741 20.5904 4.13229 18.2279 1.7588C17.675 1.202 17.0175 0.759972 16.2932 0.458134C15.5689 0.156297 14.7921 0.000601249 14.0074 0C12.5232 0.000242622 11.0931 0.557796 10.0004 1.56227ZM16.81 3.17668C18.3773 4.75198 18.3783 7.2127 16.812 8.77998L10.0004 15.5916L3.18883 8.77998C1.62256 7.2127 1.62356 4.75198 3.18683 3.18069C3.94891 2.42262 4.94563 2.00548 5.99349 2.00548C7.04136 2.00548 8.03407 2.42262 8.79013 3.17868L9.2915 3.68005C9.38454 3.77325 9.49505 3.84719 9.6167 3.89764C9.73834 3.94809 9.86875 3.97406 10.0004 3.97406C10.1321 3.97406 10.2625 3.94809 10.3842 3.89764C10.5058 3.84719 10.6163 3.77325 10.7094 3.68005L11.2107 3.17868C12.7269 1.66555 15.2959 1.66956 16.81 3.17668Z" fill="#F0F4F2"/>
</svg>
