<svg width="14" height="17" viewBox="0 0 14 17" fill="none" xmlns="http://www.w3.org/2000/svg">
<path d="M3.5625 0.4375C2.43726 0.4375 1.59399 1.27002 1.02734 2.19922C0.460693 3.12842 0.125 4.22949 0.125 5.25C0.125 7.02515 1.34961 8.31958 2.875 8.62305V16.25H4.25V8.62305C5.77539 8.31958 7 7.02515 7 5.25C7 4.22949 6.66431 3.12842 6.09766 2.19922C5.53101 1.27002 4.68774 0.4375 3.5625 0.4375ZM8.375 0.4375V5.25C8.375 6.52295 9.25586 7.58643 10.4375 7.89258V16.25H11.8125V7.89258C12.9941 7.58643 13.875 6.52295 13.875 5.25V0.4375H12.5V5.25C12.5 6.01807 11.8931 6.625 11.125 6.625C10.3569 6.625 9.75 6.01807 9.75 5.25V0.4375H8.375ZM10.4375 0.4375V5.25C10.4375 5.62866 10.7463 5.9375 11.125 5.9375C11.5037 5.9375 11.8125 5.62866 11.8125 5.25V0.4375H10.4375ZM3.5625 1.8125C3.95728 1.8125 4.48633 2.2019 4.91602 2.9082C5.3457 3.6145 5.625 4.55981 5.625 5.25C5.625 6.62769 4.76562 7.3125 3.5625 7.3125C2.35938 7.3125 1.5 6.62769 1.5 5.25C1.5 4.55981 1.7793 3.6145 2.20898 2.9082C2.63867 2.2019 3.16772 1.8125 3.5625 1.8125Z" fill="#6B9080"/>
</svg>
