<svg width="20" height="20" viewBox="0 0 20 20" fill="none" xmlns="http://www.w3.org/2000/svg">
<path d="M5.41023 9.99998C5.41023 12.5309 7.46906 14.5897 9.99998 14.5897C12.5309 14.5897 14.5897 12.5309 14.5897 9.99998C14.5897 7.46906 12.5309 5.41023 9.99998 5.41023C7.46906 5.41023 5.41023 7.46906 5.41023 9.99998ZM9.99998 7.24356C11.5198 7.24356 12.7564 8.48015 12.7564 9.99998C12.7564 11.5198 11.5198 12.7564 9.99998 12.7564C8.48015 12.7564 7.24357 11.5198 7.24357 9.99998C7.24357 8.48015 8.48015 7.24356 9.99998 7.24356ZM9.08148 16.4166H10.9148V19.1666H9.08148V16.4166ZM9.08148 0.833313H10.9148V3.58331H9.08148V0.833313ZM0.831482 9.08331H3.58148V10.9166H0.831482V9.08331ZM16.4148 9.08331H19.1648V10.9166H16.4148V9.08331ZM2.8674 15.8327L4.81073 13.8876L6.10782 15.1837L4.16448 17.1289L2.8674 15.8327ZM13.8866 4.81531L15.8318 2.87015L17.128 4.16631L15.1828 6.11148L13.8866 4.81531ZM4.81348 6.1124L2.86831 4.16723L4.1654 2.87106L6.10873 4.81623L4.81348 6.1124ZM17.128 15.8336L15.8318 17.1298L13.8866 15.1846L15.1828 13.8885L17.128 15.8336Z" fill="#F0F4F2"/>
</svg>
