<svg width="55" height="55" viewBox="0 0 55 55" fill="none" xmlns="http://www.w3.org/2000/svg">
<path d="M27.5 4.58334C21.4462 4.66055 15.662 7.09976 11.3809 11.3809C7.09979 15.6619 4.66058 21.4461 4.58337 27.5C4.61167 31.0267 5.45357 34.4993 7.0435 37.6473C8.63344 40.7954 10.9285 43.534 13.75 45.65V45.8333H13.9792C17.8594 48.8067 22.6116 50.4182 27.5 50.4182C32.3885 50.4182 37.1407 48.8067 41.0209 45.8333H41.25V45.65C44.0716 43.534 46.3666 40.7954 47.9566 37.6473C49.5465 34.4993 50.3884 31.0267 50.4167 27.5C50.3395 21.4461 47.9003 15.6619 43.6192 11.3809C39.3381 7.09976 33.5539 4.66055 27.5 4.58334ZM18.4938 43.3813C18.8283 41.8492 19.6766 40.4775 20.8979 39.4937C22.1192 38.51 23.6402 37.9734 25.2084 37.9729H29.7917C31.3599 37.9734 32.8808 38.51 34.1021 39.4937C35.3234 40.4775 36.1717 41.8492 36.5063 43.3813C33.7766 44.9873 30.6671 45.8342 27.5 45.8342C24.3329 45.8342 21.2235 44.9873 18.4938 43.3813ZM40.3563 40.425C39.4846 38.3418 38.0168 36.5626 36.1372 35.3108C34.2575 34.0591 32.05 33.3907 29.7917 33.3896H25.2084C22.9501 33.3907 20.7425 34.0591 18.8629 35.3108C16.9833 36.5626 15.5155 38.3418 14.6438 40.425C12.9266 38.736 11.559 36.7252 10.6192 34.5075C9.67941 32.2898 9.18585 29.9086 9.16671 27.5C9.22615 22.6562 11.1768 18.0275 14.6021 14.6021C18.0275 11.1767 22.6562 9.22612 27.5 9.16668C32.3439 9.22612 36.9726 11.1767 40.3979 14.6021C43.8233 18.0275 45.7739 22.6562 45.8334 27.5C45.8142 29.9086 45.3207 32.2898 44.3809 34.5075C43.4411 36.7252 42.0735 38.736 40.3563 40.425Z" fill="#6B9080"/>
<path d="M27.5 13.75C26.2885 13.7218 25.0839 13.9396 23.959 14.3903C22.8341 14.8409 21.8123 15.5151 20.9554 16.372C20.0985 17.2289 19.4243 18.2507 18.9736 19.3756C18.523 20.5005 18.3051 21.7052 18.3334 22.9167C18.3051 24.1282 18.523 25.3328 18.9736 26.4577C19.4243 27.5826 20.0985 28.6044 20.9554 29.4613C21.8123 30.3182 22.8341 30.9924 23.959 31.4431C25.0839 31.8937 26.2885 32.1115 27.5 32.0833C28.7115 32.1115 29.9162 31.8937 31.0411 31.4431C32.166 30.9924 33.1878 30.3182 34.0447 29.4613C34.9016 28.6044 35.5758 27.5826 36.0264 26.4577C36.4771 25.3328 36.6949 24.1282 36.6667 22.9167C36.6949 21.7052 36.4771 20.5005 36.0264 19.3756C35.5758 18.2507 34.9016 17.2289 34.0447 16.372C33.1878 15.5151 32.166 14.8409 31.0411 14.3903C29.9162 13.9396 28.7115 13.7218 27.5 13.75ZM27.5 27.5C26.8903 27.5295 26.2812 27.4311 25.7118 27.2112C25.1424 26.9913 24.6252 26.6547 24.1936 26.2231C23.762 25.7915 23.4254 25.2743 23.2055 24.7049C22.9856 24.1355 22.8872 23.5264 22.9167 22.9167C22.8872 22.307 22.9856 21.6978 23.2055 21.1284C23.4254 20.559 23.762 20.0419 24.1936 19.6102C24.6252 19.1786 25.1424 18.842 25.7118 18.6221C26.2812 18.4022 26.8903 18.3038 27.5 18.3333C28.1097 18.3038 28.7189 18.4022 29.2883 18.6221C29.8577 18.842 30.3748 19.1786 30.8065 19.6102C31.2381 20.0419 31.5747 20.559 31.7946 21.1284C32.0145 21.6978 32.1128 22.307 32.0834 22.9167C32.1128 23.5264 32.0145 24.1355 31.7946 24.7049C31.5747 25.2743 31.2381 25.7915 30.8065 26.2231C30.3748 26.6547 29.8577 26.9913 29.2883 27.2112C28.7189 27.4311 28.1097 27.5295 27.5 27.5Z" fill="#6B9080"/>
</svg>
